<mxfile host="Electron" modified="2025-05-18T10:01:02.081Z" agent="Mozilla/5.0 (Windows NT 10.0; Win64; x64) AppleWebKit/537.36 (KHTML, like Gecko) draw.io/24.4.13 Chrome/124.0.6367.207 Electron/30.0.6 Safari/537.36" etag="UwSg2QlNZaAtqbaJgHdV" version="24.4.13" type="device">
  <diagram name="Page-1" id="dE7l-RSY6XcTpxxpXtOH">
    <mxGraphModel dx="2647" dy="1703" grid="1" gridSize="10" guides="1" tooltips="1" connect="1" arrows="1" fold="1" page="1" pageScale="1" pageWidth="827" pageHeight="1169" math="0" shadow="0">
      <root>
        <mxCell id="0" />
        <mxCell id="1" parent="0" />
        <mxCell id="tRoF4hqVD8PDqqtzrquV-1" value="Сотрудник компании" style="swimlane;whiteSpace=wrap;html=1;" vertex="1" parent="1">
          <mxGeometry x="50" y="70" width="280" height="1130" as="geometry" />
        </mxCell>
        <mxCell id="tRoF4hqVD8PDqqtzrquV-9" value="" style="edgeStyle=orthogonalEdgeStyle;rounded=0;orthogonalLoop=1;jettySize=auto;html=1;" edge="1" parent="tRoF4hqVD8PDqqtzrquV-1" source="tRoF4hqVD8PDqqtzrquV-7" target="tRoF4hqVD8PDqqtzrquV-8">
          <mxGeometry relative="1" as="geometry" />
        </mxCell>
        <mxCell id="tRoF4hqVD8PDqqtzrquV-7" value="" style="ellipse;whiteSpace=wrap;html=1;aspect=fixed;fillColor=#d5e8d4;strokeColor=#82b366;" vertex="1" parent="tRoF4hqVD8PDqqtzrquV-1">
          <mxGeometry x="110" y="40" width="40" height="40" as="geometry" />
        </mxCell>
        <mxCell id="tRoF4hqVD8PDqqtzrquV-12" value="" style="edgeStyle=orthogonalEdgeStyle;rounded=0;orthogonalLoop=1;jettySize=auto;html=1;" edge="1" parent="tRoF4hqVD8PDqqtzrquV-1" source="tRoF4hqVD8PDqqtzrquV-8" target="tRoF4hqVD8PDqqtzrquV-11">
          <mxGeometry relative="1" as="geometry" />
        </mxCell>
        <mxCell id="tRoF4hqVD8PDqqtzrquV-8" value="Заполнение заявки на приобритение техники" style="rounded=1;whiteSpace=wrap;html=1;" vertex="1" parent="tRoF4hqVD8PDqqtzrquV-1">
          <mxGeometry x="50" y="120" width="160" height="50" as="geometry" />
        </mxCell>
        <mxCell id="tRoF4hqVD8PDqqtzrquV-11" value="" style="points=[[0.145,0.145,0],[0.5,0,0],[0.855,0.145,0],[1,0.5,0],[0.855,0.855,0],[0.5,1,0],[0.145,0.855,0],[0,0.5,0]];shape=mxgraph.bpmn.event;html=1;verticalLabelPosition=bottom;labelBackgroundColor=#ffffff;verticalAlign=top;align=center;perimeter=ellipsePerimeter;outlineConnect=0;aspect=fixed;outline=standard;symbol=message;fillColor=#fff2cc;strokeColor=#d6b656;" vertex="1" parent="tRoF4hqVD8PDqqtzrquV-1">
          <mxGeometry x="110" y="200" width="40" height="40" as="geometry" />
        </mxCell>
        <mxCell id="tRoF4hqVD8PDqqtzrquV-27" style="edgeStyle=orthogonalEdgeStyle;rounded=0;orthogonalLoop=1;jettySize=auto;html=1;exitX=0;exitY=0.5;exitDx=0;exitDy=0;exitPerimeter=0;entryX=1;entryY=0.5;entryDx=0;entryDy=0;" edge="1" parent="tRoF4hqVD8PDqqtzrquV-1" source="tRoF4hqVD8PDqqtzrquV-24" target="tRoF4hqVD8PDqqtzrquV-26">
          <mxGeometry relative="1" as="geometry" />
        </mxCell>
        <mxCell id="tRoF4hqVD8PDqqtzrquV-24" value="" style="points=[[0.145,0.145,0],[0.5,0,0],[0.855,0.145,0],[1,0.5,0],[0.855,0.855,0],[0.5,1,0],[0.145,0.855,0],[0,0.5,0]];shape=mxgraph.bpmn.event;html=1;verticalLabelPosition=bottom;labelBackgroundColor=#ffffff;verticalAlign=top;align=center;perimeter=ellipsePerimeter;outlineConnect=0;aspect=fixed;outline=throwing;symbol=message;fillColor=#fff2cc;strokeColor=#d6b656;" vertex="1" parent="tRoF4hqVD8PDqqtzrquV-1">
          <mxGeometry x="180" y="430" width="40" height="40" as="geometry" />
        </mxCell>
        <mxCell id="tRoF4hqVD8PDqqtzrquV-26" value="Получение уведомления об отклонении заявки" style="rounded=1;whiteSpace=wrap;html=1;" vertex="1" parent="tRoF4hqVD8PDqqtzrquV-1">
          <mxGeometry x="60" y="420" width="105" height="60" as="geometry" />
        </mxCell>
        <mxCell id="tRoF4hqVD8PDqqtzrquV-28" value="" style="points=[[0.145,0.145,0],[0.5,0,0],[0.855,0.145,0],[1,0.5,0],[0.855,0.855,0],[0.5,1,0],[0.145,0.855,0],[0,0.5,0]];shape=mxgraph.bpmn.event;html=1;verticalLabelPosition=bottom;labelBackgroundColor=#ffffff;verticalAlign=top;align=center;perimeter=ellipsePerimeter;outlineConnect=0;aspect=fixed;outline=end;symbol=terminate2;fillColor=#f8cecc;strokeColor=#b85450;" vertex="1" parent="tRoF4hqVD8PDqqtzrquV-1">
          <mxGeometry x="10" y="435" width="30" height="30" as="geometry" />
        </mxCell>
        <mxCell id="tRoF4hqVD8PDqqtzrquV-37" style="edgeStyle=orthogonalEdgeStyle;rounded=0;orthogonalLoop=1;jettySize=auto;html=1;exitX=0;exitY=0.5;exitDx=0;exitDy=0;entryX=1;entryY=0.5;entryDx=0;entryDy=0;entryPerimeter=0;" edge="1" parent="tRoF4hqVD8PDqqtzrquV-1" source="tRoF4hqVD8PDqqtzrquV-26" target="tRoF4hqVD8PDqqtzrquV-28">
          <mxGeometry relative="1" as="geometry" />
        </mxCell>
        <mxCell id="tRoF4hqVD8PDqqtzrquV-63" value="Получение техники" style="rounded=1;whiteSpace=wrap;html=1;" vertex="1" parent="tRoF4hqVD8PDqqtzrquV-1">
          <mxGeometry x="80" y="880" width="120" height="60" as="geometry" />
        </mxCell>
        <mxCell id="tRoF4hqVD8PDqqtzrquV-64" value="" style="points=[[0.145,0.145,0],[0.5,0,0],[0.855,0.145,0],[1,0.5,0],[0.855,0.855,0],[0.5,1,0],[0.145,0.855,0],[0,0.5,0]];shape=mxgraph.bpmn.event;html=1;verticalLabelPosition=bottom;labelBackgroundColor=#ffffff;verticalAlign=top;align=center;perimeter=ellipsePerimeter;outlineConnect=0;aspect=fixed;outline=end;symbol=terminate2;fillColor=#f8cecc;strokeColor=#b85450;" vertex="1" parent="tRoF4hqVD8PDqqtzrquV-1">
          <mxGeometry x="11" y="895" width="30" height="30" as="geometry" />
        </mxCell>
        <mxCell id="tRoF4hqVD8PDqqtzrquV-67" style="edgeStyle=orthogonalEdgeStyle;rounded=0;orthogonalLoop=1;jettySize=auto;html=1;exitX=0;exitY=0.5;exitDx=0;exitDy=0;entryX=1;entryY=0.5;entryDx=0;entryDy=0;entryPerimeter=0;" edge="1" parent="tRoF4hqVD8PDqqtzrquV-1" source="tRoF4hqVD8PDqqtzrquV-63" target="tRoF4hqVD8PDqqtzrquV-64">
          <mxGeometry relative="1" as="geometry" />
        </mxCell>
        <mxCell id="tRoF4hqVD8PDqqtzrquV-2" value="Руководитель" style="swimlane;whiteSpace=wrap;html=1;" vertex="1" parent="1">
          <mxGeometry x="330" y="70" width="280" height="1130" as="geometry" />
        </mxCell>
        <mxCell id="tRoF4hqVD8PDqqtzrquV-10" value="Рассмотрение заявки на приобритение техники" style="rounded=1;whiteSpace=wrap;html=1;" vertex="1" parent="tRoF4hqVD8PDqqtzrquV-2">
          <mxGeometry x="70" y="120" width="120" height="60" as="geometry" />
        </mxCell>
        <mxCell id="tRoF4hqVD8PDqqtzrquV-15" style="edgeStyle=orthogonalEdgeStyle;rounded=0;orthogonalLoop=1;jettySize=auto;html=1;exitX=0.5;exitY=1;exitDx=0;exitDy=0;exitPerimeter=0;entryX=0.5;entryY=0;entryDx=0;entryDy=0;" edge="1" parent="tRoF4hqVD8PDqqtzrquV-2" source="tRoF4hqVD8PDqqtzrquV-13" target="tRoF4hqVD8PDqqtzrquV-10">
          <mxGeometry relative="1" as="geometry" />
        </mxCell>
        <mxCell id="tRoF4hqVD8PDqqtzrquV-13" value="" style="points=[[0.145,0.145,0],[0.5,0,0],[0.855,0.145,0],[1,0.5,0],[0.855,0.855,0],[0.5,1,0],[0.145,0.855,0],[0,0.5,0]];shape=mxgraph.bpmn.event;html=1;verticalLabelPosition=bottom;labelBackgroundColor=#ffffff;verticalAlign=top;align=center;perimeter=ellipsePerimeter;outlineConnect=0;aspect=fixed;outline=throwing;symbol=message;fillColor=#fff2cc;strokeColor=#d6b656;" vertex="1" parent="tRoF4hqVD8PDqqtzrquV-2">
          <mxGeometry x="110" y="50" width="40" height="40" as="geometry" />
        </mxCell>
        <mxCell id="tRoF4hqVD8PDqqtzrquV-35" style="edgeStyle=orthogonalEdgeStyle;rounded=0;orthogonalLoop=1;jettySize=auto;html=1;exitX=0.5;exitY=1;exitDx=0;exitDy=0;exitPerimeter=0;entryX=0.5;entryY=0;entryDx=0;entryDy=0;" edge="1" parent="tRoF4hqVD8PDqqtzrquV-2" source="tRoF4hqVD8PDqqtzrquV-16" target="tRoF4hqVD8PDqqtzrquV-19">
          <mxGeometry relative="1" as="geometry" />
        </mxCell>
        <mxCell id="tRoF4hqVD8PDqqtzrquV-36" value="НЕТ" style="edgeLabel;html=1;align=center;verticalAlign=middle;resizable=0;points=[];" vertex="1" connectable="0" parent="tRoF4hqVD8PDqqtzrquV-35">
          <mxGeometry x="-0.3278" y="-3" relative="1" as="geometry">
            <mxPoint as="offset" />
          </mxGeometry>
        </mxCell>
        <mxCell id="tRoF4hqVD8PDqqtzrquV-16" value="" style="points=[[0.25,0.25,0],[0.5,0,0],[0.75,0.25,0],[1,0.5,0],[0.75,0.75,0],[0.5,1,0],[0.25,0.75,0],[0,0.5,0]];shape=mxgraph.bpmn.gateway2;html=1;verticalLabelPosition=bottom;labelBackgroundColor=#ffffff;verticalAlign=top;align=center;perimeter=rhombusPerimeter;outlineConnect=0;outline=none;symbol=none;gwType=exclusive;" vertex="1" parent="tRoF4hqVD8PDqqtzrquV-2">
          <mxGeometry x="105" y="250" width="50" height="50" as="geometry" />
        </mxCell>
        <mxCell id="tRoF4hqVD8PDqqtzrquV-17" style="edgeStyle=orthogonalEdgeStyle;rounded=0;orthogonalLoop=1;jettySize=auto;html=1;exitX=0.5;exitY=1;exitDx=0;exitDy=0;entryX=0.5;entryY=0;entryDx=0;entryDy=0;entryPerimeter=0;" edge="1" parent="tRoF4hqVD8PDqqtzrquV-2" source="tRoF4hqVD8PDqqtzrquV-10" target="tRoF4hqVD8PDqqtzrquV-16">
          <mxGeometry relative="1" as="geometry" />
        </mxCell>
        <mxCell id="tRoF4hqVD8PDqqtzrquV-18" value="Заявка согласована?" style="edgeLabel;html=1;align=center;verticalAlign=middle;resizable=0;points=[];" vertex="1" connectable="0" parent="tRoF4hqVD8PDqqtzrquV-17">
          <mxGeometry x="-0.186" y="-1" relative="1" as="geometry">
            <mxPoint as="offset" />
          </mxGeometry>
        </mxCell>
        <mxCell id="tRoF4hqVD8PDqqtzrquV-19" value="Отклонение заявки и уведомление сотрудника" style="rounded=1;whiteSpace=wrap;html=1;" vertex="1" parent="tRoF4hqVD8PDqqtzrquV-2">
          <mxGeometry x="77.5" y="340" width="105" height="60" as="geometry" />
        </mxCell>
        <mxCell id="tRoF4hqVD8PDqqtzrquV-22" value="" style="points=[[0.145,0.145,0],[0.5,0,0],[0.855,0.145,0],[1,0.5,0],[0.855,0.855,0],[0.5,1,0],[0.145,0.855,0],[0,0.5,0]];shape=mxgraph.bpmn.event;html=1;verticalLabelPosition=bottom;labelBackgroundColor=#ffffff;verticalAlign=top;align=center;perimeter=ellipsePerimeter;outlineConnect=0;aspect=fixed;outline=standard;symbol=message;fillColor=#fff2cc;strokeColor=#d6b656;" vertex="1" parent="tRoF4hqVD8PDqqtzrquV-2">
          <mxGeometry x="110" y="430" width="40" height="40" as="geometry" />
        </mxCell>
        <mxCell id="tRoF4hqVD8PDqqtzrquV-23" style="edgeStyle=orthogonalEdgeStyle;rounded=0;orthogonalLoop=1;jettySize=auto;html=1;exitX=0.5;exitY=1;exitDx=0;exitDy=0;entryX=0.5;entryY=0;entryDx=0;entryDy=0;entryPerimeter=0;" edge="1" parent="tRoF4hqVD8PDqqtzrquV-2" source="tRoF4hqVD8PDqqtzrquV-19" target="tRoF4hqVD8PDqqtzrquV-22">
          <mxGeometry relative="1" as="geometry" />
        </mxCell>
        <mxCell id="tRoF4hqVD8PDqqtzrquV-3" value="Администратор" style="swimlane;whiteSpace=wrap;html=1;" vertex="1" parent="1">
          <mxGeometry x="610" y="70" width="380" height="1130" as="geometry" />
        </mxCell>
        <mxCell id="tRoF4hqVD8PDqqtzrquV-31" value="Рассмотрение заявки на приобритение техники" style="rounded=1;whiteSpace=wrap;html=1;" vertex="1" parent="tRoF4hqVD8PDqqtzrquV-3">
          <mxGeometry x="40" y="70" width="120" height="60" as="geometry" />
        </mxCell>
        <mxCell id="tRoF4hqVD8PDqqtzrquV-42" style="edgeStyle=orthogonalEdgeStyle;rounded=0;orthogonalLoop=1;jettySize=auto;html=1;exitX=0.5;exitY=1;exitDx=0;exitDy=0;exitPerimeter=0;entryX=0.5;entryY=0;entryDx=0;entryDy=0;" edge="1" parent="tRoF4hqVD8PDqqtzrquV-3" source="tRoF4hqVD8PDqqtzrquV-38" target="tRoF4hqVD8PDqqtzrquV-41">
          <mxGeometry relative="1" as="geometry" />
        </mxCell>
        <mxCell id="tRoF4hqVD8PDqqtzrquV-45" value="НЕТ" style="edgeLabel;html=1;align=center;verticalAlign=middle;resizable=0;points=[];" vertex="1" connectable="0" parent="tRoF4hqVD8PDqqtzrquV-42">
          <mxGeometry x="-0.2278" y="1" relative="1" as="geometry">
            <mxPoint y="-1" as="offset" />
          </mxGeometry>
        </mxCell>
        <mxCell id="tRoF4hqVD8PDqqtzrquV-50" style="edgeStyle=orthogonalEdgeStyle;rounded=0;orthogonalLoop=1;jettySize=auto;html=1;exitX=1;exitY=0.5;exitDx=0;exitDy=0;exitPerimeter=0;entryX=0;entryY=0.5;entryDx=0;entryDy=0;" edge="1" parent="tRoF4hqVD8PDqqtzrquV-3" source="tRoF4hqVD8PDqqtzrquV-38" target="tRoF4hqVD8PDqqtzrquV-49">
          <mxGeometry relative="1" as="geometry" />
        </mxCell>
        <mxCell id="tRoF4hqVD8PDqqtzrquV-51" value="ДА" style="edgeLabel;html=1;align=center;verticalAlign=middle;resizable=0;points=[];" vertex="1" connectable="0" parent="tRoF4hqVD8PDqqtzrquV-50">
          <mxGeometry x="-0.0577" y="-1" relative="1" as="geometry">
            <mxPoint as="offset" />
          </mxGeometry>
        </mxCell>
        <mxCell id="tRoF4hqVD8PDqqtzrquV-38" value="" style="points=[[0.25,0.25,0],[0.5,0,0],[0.75,0.25,0],[1,0.5,0],[0.75,0.75,0],[0.5,1,0],[0.25,0.75,0],[0,0.5,0]];shape=mxgraph.bpmn.gateway2;html=1;verticalLabelPosition=bottom;labelBackgroundColor=#ffffff;verticalAlign=top;align=center;perimeter=rhombusPerimeter;outlineConnect=0;outline=none;symbol=none;gwType=exclusive;" vertex="1" parent="tRoF4hqVD8PDqqtzrquV-3">
          <mxGeometry x="75" y="240" width="50" height="50" as="geometry" />
        </mxCell>
        <mxCell id="tRoF4hqVD8PDqqtzrquV-39" style="edgeStyle=orthogonalEdgeStyle;rounded=0;orthogonalLoop=1;jettySize=auto;html=1;entryX=0.5;entryY=0;entryDx=0;entryDy=0;entryPerimeter=0;" edge="1" parent="tRoF4hqVD8PDqqtzrquV-3" source="tRoF4hqVD8PDqqtzrquV-31" target="tRoF4hqVD8PDqqtzrquV-38">
          <mxGeometry relative="1" as="geometry" />
        </mxCell>
        <mxCell id="tRoF4hqVD8PDqqtzrquV-40" value="Заявка согласована?" style="edgeLabel;html=1;align=center;verticalAlign=middle;resizable=0;points=[];" vertex="1" connectable="0" parent="tRoF4hqVD8PDqqtzrquV-39">
          <mxGeometry x="-0.1131" y="1" relative="1" as="geometry">
            <mxPoint y="-1" as="offset" />
          </mxGeometry>
        </mxCell>
        <mxCell id="tRoF4hqVD8PDqqtzrquV-41" value="Отклонение заявки и уведомление сотрудника" style="rounded=1;whiteSpace=wrap;html=1;" vertex="1" parent="tRoF4hqVD8PDqqtzrquV-3">
          <mxGeometry x="47.5" y="330" width="105" height="60" as="geometry" />
        </mxCell>
        <mxCell id="tRoF4hqVD8PDqqtzrquV-43" value="" style="points=[[0.145,0.145,0],[0.5,0,0],[0.855,0.145,0],[1,0.5,0],[0.855,0.855,0],[0.5,1,0],[0.145,0.855,0],[0,0.5,0]];shape=mxgraph.bpmn.event;html=1;verticalLabelPosition=bottom;labelBackgroundColor=#ffffff;verticalAlign=top;align=center;perimeter=ellipsePerimeter;outlineConnect=0;aspect=fixed;outline=standard;symbol=message;fillColor=#fff2cc;strokeColor=#d6b656;" vertex="1" parent="tRoF4hqVD8PDqqtzrquV-3">
          <mxGeometry x="80" y="430" width="40" height="40" as="geometry" />
        </mxCell>
        <mxCell id="tRoF4hqVD8PDqqtzrquV-44" style="edgeStyle=orthogonalEdgeStyle;rounded=0;orthogonalLoop=1;jettySize=auto;html=1;exitX=0.5;exitY=1;exitDx=0;exitDy=0;entryX=0.5;entryY=0;entryDx=0;entryDy=0;entryPerimeter=0;" edge="1" parent="tRoF4hqVD8PDqqtzrquV-3" source="tRoF4hqVD8PDqqtzrquV-41" target="tRoF4hqVD8PDqqtzrquV-43">
          <mxGeometry relative="1" as="geometry" />
        </mxCell>
        <mxCell id="tRoF4hqVD8PDqqtzrquV-49" value="Проверить наличие техники на складе" style="rounded=1;whiteSpace=wrap;html=1;" vertex="1" parent="tRoF4hqVD8PDqqtzrquV-3">
          <mxGeometry x="220" y="235" width="105" height="60" as="geometry" />
        </mxCell>
        <mxCell id="tRoF4hqVD8PDqqtzrquV-59" style="edgeStyle=orthogonalEdgeStyle;rounded=0;orthogonalLoop=1;jettySize=auto;html=1;exitX=1;exitY=0.5;exitDx=0;exitDy=0;exitPerimeter=0;entryX=0.634;entryY=0.032;entryDx=0;entryDy=0;entryPerimeter=0;" edge="1" parent="tRoF4hqVD8PDqqtzrquV-3" source="tRoF4hqVD8PDqqtzrquV-52" target="tRoF4hqVD8PDqqtzrquV-56">
          <mxGeometry relative="1" as="geometry" />
        </mxCell>
        <mxCell id="tRoF4hqVD8PDqqtzrquV-60" value="НЕТ" style="edgeLabel;html=1;align=center;verticalAlign=middle;resizable=0;points=[];" vertex="1" connectable="0" parent="tRoF4hqVD8PDqqtzrquV-59">
          <mxGeometry x="0.1905" relative="1" as="geometry">
            <mxPoint as="offset" />
          </mxGeometry>
        </mxCell>
        <mxCell id="tRoF4hqVD8PDqqtzrquV-61" style="edgeStyle=orthogonalEdgeStyle;rounded=0;orthogonalLoop=1;jettySize=auto;html=1;exitX=0;exitY=0.5;exitDx=0;exitDy=0;exitPerimeter=0;entryX=0.75;entryY=0;entryDx=0;entryDy=0;" edge="1" parent="tRoF4hqVD8PDqqtzrquV-3" source="tRoF4hqVD8PDqqtzrquV-52" target="tRoF4hqVD8PDqqtzrquV-55">
          <mxGeometry relative="1" as="geometry" />
        </mxCell>
        <mxCell id="tRoF4hqVD8PDqqtzrquV-62" value="ДА" style="edgeLabel;html=1;align=center;verticalAlign=middle;resizable=0;points=[];" vertex="1" connectable="0" parent="tRoF4hqVD8PDqqtzrquV-61">
          <mxGeometry x="-0.4386" y="2" relative="1" as="geometry">
            <mxPoint as="offset" />
          </mxGeometry>
        </mxCell>
        <mxCell id="tRoF4hqVD8PDqqtzrquV-52" value="" style="points=[[0.25,0.25,0],[0.5,0,0],[0.75,0.25,0],[1,0.5,0],[0.75,0.75,0],[0.5,1,0],[0.25,0.75,0],[0,0.5,0]];shape=mxgraph.bpmn.gateway2;html=1;verticalLabelPosition=bottom;labelBackgroundColor=#ffffff;verticalAlign=top;align=center;perimeter=rhombusPerimeter;outlineConnect=0;outline=none;symbol=none;gwType=exclusive;" vertex="1" parent="tRoF4hqVD8PDqqtzrquV-3">
          <mxGeometry x="247.5" y="380" width="50" height="50" as="geometry" />
        </mxCell>
        <mxCell id="tRoF4hqVD8PDqqtzrquV-53" style="edgeStyle=orthogonalEdgeStyle;rounded=0;orthogonalLoop=1;jettySize=auto;html=1;exitX=0.5;exitY=1;exitDx=0;exitDy=0;entryX=0.5;entryY=0;entryDx=0;entryDy=0;entryPerimeter=0;" edge="1" parent="tRoF4hqVD8PDqqtzrquV-3" source="tRoF4hqVD8PDqqtzrquV-49" target="tRoF4hqVD8PDqqtzrquV-52">
          <mxGeometry relative="1" as="geometry" />
        </mxCell>
        <mxCell id="tRoF4hqVD8PDqqtzrquV-54" value="Техника в наличии?" style="edgeLabel;html=1;align=center;verticalAlign=middle;resizable=0;points=[];" vertex="1" connectable="0" parent="tRoF4hqVD8PDqqtzrquV-53">
          <mxGeometry x="-0.1765" y="5" relative="1" as="geometry">
            <mxPoint y="1" as="offset" />
          </mxGeometry>
        </mxCell>
        <mxCell id="tRoF4hqVD8PDqqtzrquV-55" value="Выдать сотруднику технику" style="rounded=1;whiteSpace=wrap;html=1;" vertex="1" parent="tRoF4hqVD8PDqqtzrquV-3">
          <mxGeometry x="42" y="530" width="120" height="60" as="geometry" />
        </mxCell>
        <mxCell id="tRoF4hqVD8PDqqtzrquV-56" value="Заполнение заявки на выдачу денежных средств на приобритение техники" style="rounded=1;whiteSpace=wrap;html=1;" vertex="1" parent="tRoF4hqVD8PDqqtzrquV-3">
          <mxGeometry x="220" y="530" width="147.5" height="60" as="geometry" />
        </mxCell>
        <mxCell id="tRoF4hqVD8PDqqtzrquV-69" value="" style="points=[[0.145,0.145,0],[0.5,0,0],[0.855,0.145,0],[1,0.5,0],[0.855,0.855,0],[0.5,1,0],[0.145,0.855,0],[0,0.5,0]];shape=mxgraph.bpmn.event;html=1;verticalLabelPosition=bottom;labelBackgroundColor=#ffffff;verticalAlign=top;align=center;perimeter=ellipsePerimeter;outlineConnect=0;aspect=fixed;outline=standard;symbol=message;fillColor=#fff2cc;strokeColor=#d6b656;" vertex="1" parent="tRoF4hqVD8PDqqtzrquV-3">
          <mxGeometry x="297.5" y="620" width="40" height="40" as="geometry" />
        </mxCell>
        <mxCell id="tRoF4hqVD8PDqqtzrquV-70" style="edgeStyle=orthogonalEdgeStyle;rounded=0;orthogonalLoop=1;jettySize=auto;html=1;exitX=0.5;exitY=1;exitDx=0;exitDy=0;entryX=0.5;entryY=0;entryDx=0;entryDy=0;entryPerimeter=0;" edge="1" parent="tRoF4hqVD8PDqqtzrquV-3" source="tRoF4hqVD8PDqqtzrquV-56" target="tRoF4hqVD8PDqqtzrquV-69">
          <mxGeometry relative="1" as="geometry" />
        </mxCell>
        <mxCell id="tRoF4hqVD8PDqqtzrquV-88" value="Получение уведомления об отлонении заявки" style="rounded=1;whiteSpace=wrap;html=1;" vertex="1" parent="tRoF4hqVD8PDqqtzrquV-3">
          <mxGeometry x="170" y="710" width="120" height="60" as="geometry" />
        </mxCell>
        <mxCell id="tRoF4hqVD8PDqqtzrquV-91" style="edgeStyle=orthogonalEdgeStyle;rounded=0;orthogonalLoop=1;jettySize=auto;html=1;exitX=0;exitY=0.5;exitDx=0;exitDy=0;exitPerimeter=0;" edge="1" parent="tRoF4hqVD8PDqqtzrquV-3" source="tRoF4hqVD8PDqqtzrquV-89" target="tRoF4hqVD8PDqqtzrquV-88">
          <mxGeometry relative="1" as="geometry" />
        </mxCell>
        <mxCell id="tRoF4hqVD8PDqqtzrquV-89" value="" style="points=[[0.145,0.145,0],[0.5,0,0],[0.855,0.145,0],[1,0.5,0],[0.855,0.855,0],[0.5,1,0],[0.145,0.855,0],[0,0.5,0]];shape=mxgraph.bpmn.event;html=1;verticalLabelPosition=bottom;labelBackgroundColor=#ffffff;verticalAlign=top;align=center;perimeter=ellipsePerimeter;outlineConnect=0;aspect=fixed;outline=throwing;symbol=message;fillColor=#fff2cc;strokeColor=#d6b656;" vertex="1" parent="tRoF4hqVD8PDqqtzrquV-3">
          <mxGeometry x="310" y="720" width="40" height="40" as="geometry" />
        </mxCell>
        <mxCell id="tRoF4hqVD8PDqqtzrquV-93" value="" style="points=[[0.145,0.145,0],[0.5,0,0],[0.855,0.145,0],[1,0.5,0],[0.855,0.855,0],[0.5,1,0],[0.145,0.855,0],[0,0.5,0]];shape=mxgraph.bpmn.event;html=1;verticalLabelPosition=bottom;labelBackgroundColor=#ffffff;verticalAlign=top;align=center;perimeter=ellipsePerimeter;outlineConnect=0;aspect=fixed;outline=end;symbol=terminate2;fillColor=#f8cecc;strokeColor=#b85450;" vertex="1" parent="tRoF4hqVD8PDqqtzrquV-3">
          <mxGeometry x="215" y="800" width="30" height="30" as="geometry" />
        </mxCell>
        <mxCell id="tRoF4hqVD8PDqqtzrquV-94" style="edgeStyle=orthogonalEdgeStyle;rounded=0;orthogonalLoop=1;jettySize=auto;html=1;exitX=0.5;exitY=1;exitDx=0;exitDy=0;entryX=0.5;entryY=0;entryDx=0;entryDy=0;entryPerimeter=0;" edge="1" parent="tRoF4hqVD8PDqqtzrquV-3" source="tRoF4hqVD8PDqqtzrquV-88" target="tRoF4hqVD8PDqqtzrquV-93">
          <mxGeometry relative="1" as="geometry" />
        </mxCell>
        <mxCell id="tRoF4hqVD8PDqqtzrquV-108" style="edgeStyle=orthogonalEdgeStyle;rounded=0;orthogonalLoop=1;jettySize=auto;html=1;exitX=0;exitY=0.5;exitDx=0;exitDy=0;exitPerimeter=0;" edge="1" parent="tRoF4hqVD8PDqqtzrquV-3" source="tRoF4hqVD8PDqqtzrquV-105" target="tRoF4hqVD8PDqqtzrquV-106">
          <mxGeometry relative="1" as="geometry" />
        </mxCell>
        <mxCell id="tRoF4hqVD8PDqqtzrquV-105" value="" style="points=[[0.145,0.145,0],[0.5,0,0],[0.855,0.145,0],[1,0.5,0],[0.855,0.855,0],[0.5,1,0],[0.145,0.855,0],[0,0.5,0]];shape=mxgraph.bpmn.event;html=1;verticalLabelPosition=bottom;labelBackgroundColor=#ffffff;verticalAlign=top;align=center;perimeter=ellipsePerimeter;outlineConnect=0;aspect=fixed;outline=throwing;symbol=message;fillColor=#fff2cc;strokeColor=#d6b656;" vertex="1" parent="tRoF4hqVD8PDqqtzrquV-3">
          <mxGeometry x="310" y="880" width="40" height="40" as="geometry" />
        </mxCell>
        <mxCell id="tRoF4hqVD8PDqqtzrquV-110" value="" style="edgeStyle=orthogonalEdgeStyle;rounded=0;orthogonalLoop=1;jettySize=auto;html=1;" edge="1" parent="tRoF4hqVD8PDqqtzrquV-3" source="tRoF4hqVD8PDqqtzrquV-106" target="tRoF4hqVD8PDqqtzrquV-109">
          <mxGeometry relative="1" as="geometry" />
        </mxCell>
        <mxCell id="tRoF4hqVD8PDqqtzrquV-106" value="Получение денежных средств и покупка техники" style="rounded=1;whiteSpace=wrap;html=1;" vertex="1" parent="tRoF4hqVD8PDqqtzrquV-3">
          <mxGeometry x="162" y="871" width="120" height="60" as="geometry" />
        </mxCell>
        <mxCell id="tRoF4hqVD8PDqqtzrquV-109" value="Выдача техники сотруднику" style="whiteSpace=wrap;html=1;rounded=1;" vertex="1" parent="tRoF4hqVD8PDqqtzrquV-3">
          <mxGeometry x="162" y="1011" width="120" height="60" as="geometry" />
        </mxCell>
        <mxCell id="tRoF4hqVD8PDqqtzrquV-4" value="Главный бухгалтер" style="swimlane;whiteSpace=wrap;html=1;" vertex="1" parent="1">
          <mxGeometry x="990" y="70" width="410" height="1130" as="geometry" />
        </mxCell>
        <mxCell id="tRoF4hqVD8PDqqtzrquV-74" style="edgeStyle=orthogonalEdgeStyle;rounded=0;orthogonalLoop=1;jettySize=auto;html=1;exitX=0.5;exitY=1;exitDx=0;exitDy=0;exitPerimeter=0;" edge="1" parent="tRoF4hqVD8PDqqtzrquV-4" source="tRoF4hqVD8PDqqtzrquV-71" target="tRoF4hqVD8PDqqtzrquV-73">
          <mxGeometry relative="1" as="geometry" />
        </mxCell>
        <mxCell id="tRoF4hqVD8PDqqtzrquV-71" value="" style="points=[[0.145,0.145,0],[0.5,0,0],[0.855,0.145,0],[1,0.5,0],[0.855,0.855,0],[0.5,1,0],[0.145,0.855,0],[0,0.5,0]];shape=mxgraph.bpmn.event;html=1;verticalLabelPosition=bottom;labelBackgroundColor=#ffffff;verticalAlign=top;align=center;perimeter=ellipsePerimeter;outlineConnect=0;aspect=fixed;outline=throwing;symbol=message;fillColor=#fff2cc;strokeColor=#d6b656;" vertex="1" parent="tRoF4hqVD8PDqqtzrquV-4">
          <mxGeometry x="185" y="160" width="40" height="40" as="geometry" />
        </mxCell>
        <mxCell id="tRoF4hqVD8PDqqtzrquV-73" value="Рассмотрение заявки на выдачу денежных средств на приобритение техники" style="rounded=1;whiteSpace=wrap;html=1;" vertex="1" parent="tRoF4hqVD8PDqqtzrquV-4">
          <mxGeometry x="135" y="240" width="140" height="75" as="geometry" />
        </mxCell>
        <mxCell id="tRoF4hqVD8PDqqtzrquV-81" style="edgeStyle=orthogonalEdgeStyle;rounded=0;orthogonalLoop=1;jettySize=auto;html=1;exitX=0;exitY=0.5;exitDx=0;exitDy=0;exitPerimeter=0;entryX=0.5;entryY=0;entryDx=0;entryDy=0;" edge="1" parent="tRoF4hqVD8PDqqtzrquV-4" source="tRoF4hqVD8PDqqtzrquV-75" target="tRoF4hqVD8PDqqtzrquV-79">
          <mxGeometry relative="1" as="geometry" />
        </mxCell>
        <mxCell id="tRoF4hqVD8PDqqtzrquV-83" value="НЕТ" style="edgeLabel;html=1;align=center;verticalAlign=middle;resizable=0;points=[];" vertex="1" connectable="0" parent="tRoF4hqVD8PDqqtzrquV-81">
          <mxGeometry x="-0.3631" relative="1" as="geometry">
            <mxPoint x="1" as="offset" />
          </mxGeometry>
        </mxCell>
        <mxCell id="tRoF4hqVD8PDqqtzrquV-82" style="edgeStyle=orthogonalEdgeStyle;rounded=0;orthogonalLoop=1;jettySize=auto;html=1;exitX=1;exitY=0.5;exitDx=0;exitDy=0;exitPerimeter=0;entryX=0.5;entryY=0;entryDx=0;entryDy=0;" edge="1" parent="tRoF4hqVD8PDqqtzrquV-4" source="tRoF4hqVD8PDqqtzrquV-75" target="tRoF4hqVD8PDqqtzrquV-80">
          <mxGeometry relative="1" as="geometry" />
        </mxCell>
        <mxCell id="tRoF4hqVD8PDqqtzrquV-84" value="ДА" style="edgeLabel;html=1;align=center;verticalAlign=middle;resizable=0;points=[];" vertex="1" connectable="0" parent="tRoF4hqVD8PDqqtzrquV-82">
          <mxGeometry x="-0.1641" relative="1" as="geometry">
            <mxPoint x="1" as="offset" />
          </mxGeometry>
        </mxCell>
        <mxCell id="tRoF4hqVD8PDqqtzrquV-75" value="" style="points=[[0.25,0.25,0],[0.5,0,0],[0.75,0.25,0],[1,0.5,0],[0.75,0.75,0],[0.5,1,0],[0.25,0.75,0],[0,0.5,0]];shape=mxgraph.bpmn.gateway2;html=1;verticalLabelPosition=bottom;labelBackgroundColor=#ffffff;verticalAlign=top;align=center;perimeter=rhombusPerimeter;outlineConnect=0;outline=none;symbol=none;gwType=exclusive;" vertex="1" parent="tRoF4hqVD8PDqqtzrquV-4">
          <mxGeometry x="181" y="364" width="50" height="50" as="geometry" />
        </mxCell>
        <mxCell id="tRoF4hqVD8PDqqtzrquV-76" style="edgeStyle=orthogonalEdgeStyle;rounded=0;orthogonalLoop=1;jettySize=auto;html=1;exitX=0.5;exitY=1;exitDx=0;exitDy=0;entryX=0.5;entryY=0;entryDx=0;entryDy=0;entryPerimeter=0;" edge="1" parent="tRoF4hqVD8PDqqtzrquV-4" source="tRoF4hqVD8PDqqtzrquV-73" target="tRoF4hqVD8PDqqtzrquV-75">
          <mxGeometry relative="1" as="geometry" />
        </mxCell>
        <mxCell id="tRoF4hqVD8PDqqtzrquV-77" value="Заявка согласована?&amp;nbsp;" style="edgeLabel;html=1;align=center;verticalAlign=middle;resizable=0;points=[];" vertex="1" connectable="0" parent="tRoF4hqVD8PDqqtzrquV-76">
          <mxGeometry x="0.0218" y="1" relative="1" as="geometry">
            <mxPoint as="offset" />
          </mxGeometry>
        </mxCell>
        <mxCell id="tRoF4hqVD8PDqqtzrquV-79" value="Заявка отклонена, отправка уведомления" style="rounded=1;whiteSpace=wrap;html=1;" vertex="1" parent="tRoF4hqVD8PDqqtzrquV-4">
          <mxGeometry x="50" y="430" width="120" height="60" as="geometry" />
        </mxCell>
        <mxCell id="tRoF4hqVD8PDqqtzrquV-80" value="Заявка согласована, отправление заявки на выдачу денежных средств" style="rounded=1;whiteSpace=wrap;html=1;" vertex="1" parent="tRoF4hqVD8PDqqtzrquV-4">
          <mxGeometry x="260" y="430" width="120" height="60" as="geometry" />
        </mxCell>
        <mxCell id="tRoF4hqVD8PDqqtzrquV-85" value="" style="points=[[0.145,0.145,0],[0.5,0,0],[0.855,0.145,0],[1,0.5,0],[0.855,0.855,0],[0.5,1,0],[0.145,0.855,0],[0,0.5,0]];shape=mxgraph.bpmn.event;html=1;verticalLabelPosition=bottom;labelBackgroundColor=#ffffff;verticalAlign=top;align=center;perimeter=ellipsePerimeter;outlineConnect=0;aspect=fixed;outline=standard;symbol=message;fillColor=#fff2cc;strokeColor=#d6b656;" vertex="1" parent="tRoF4hqVD8PDqqtzrquV-4">
          <mxGeometry x="90" y="515" width="40" height="40" as="geometry" />
        </mxCell>
        <mxCell id="tRoF4hqVD8PDqqtzrquV-86" style="edgeStyle=orthogonalEdgeStyle;rounded=0;orthogonalLoop=1;jettySize=auto;html=1;exitX=0.5;exitY=1;exitDx=0;exitDy=0;entryX=0.5;entryY=0;entryDx=0;entryDy=0;entryPerimeter=0;" edge="1" parent="tRoF4hqVD8PDqqtzrquV-4" source="tRoF4hqVD8PDqqtzrquV-79" target="tRoF4hqVD8PDqqtzrquV-85">
          <mxGeometry relative="1" as="geometry" />
        </mxCell>
        <mxCell id="tRoF4hqVD8PDqqtzrquV-95" value="" style="points=[[0.145,0.145,0],[0.5,0,0],[0.855,0.145,0],[1,0.5,0],[0.855,0.855,0],[0.5,1,0],[0.145,0.855,0],[0,0.5,0]];shape=mxgraph.bpmn.event;html=1;verticalLabelPosition=bottom;labelBackgroundColor=#ffffff;verticalAlign=top;align=center;perimeter=ellipsePerimeter;outlineConnect=0;aspect=fixed;outline=standard;symbol=message;fillColor=#fff2cc;strokeColor=#d6b656;" vertex="1" parent="tRoF4hqVD8PDqqtzrquV-4">
          <mxGeometry x="300" y="525" width="40" height="40" as="geometry" />
        </mxCell>
        <mxCell id="tRoF4hqVD8PDqqtzrquV-96" style="edgeStyle=orthogonalEdgeStyle;rounded=0;orthogonalLoop=1;jettySize=auto;html=1;exitX=0.5;exitY=1;exitDx=0;exitDy=0;entryX=0.5;entryY=0;entryDx=0;entryDy=0;entryPerimeter=0;" edge="1" parent="tRoF4hqVD8PDqqtzrquV-4" source="tRoF4hqVD8PDqqtzrquV-80" target="tRoF4hqVD8PDqqtzrquV-95">
          <mxGeometry relative="1" as="geometry" />
        </mxCell>
        <mxCell id="tRoF4hqVD8PDqqtzrquV-5" value="Бухгалтер" style="swimlane;whiteSpace=wrap;html=1;" vertex="1" parent="1">
          <mxGeometry x="1400" y="70" width="280" height="1130" as="geometry" />
        </mxCell>
        <mxCell id="tRoF4hqVD8PDqqtzrquV-102" value="" style="edgeStyle=orthogonalEdgeStyle;rounded=0;orthogonalLoop=1;jettySize=auto;html=1;" edge="1" parent="tRoF4hqVD8PDqqtzrquV-5" source="tRoF4hqVD8PDqqtzrquV-97" target="tRoF4hqVD8PDqqtzrquV-101">
          <mxGeometry relative="1" as="geometry" />
        </mxCell>
        <mxCell id="tRoF4hqVD8PDqqtzrquV-97" value="Получение заявки на выдачу денежных средств" style="rounded=1;whiteSpace=wrap;html=1;" vertex="1" parent="tRoF4hqVD8PDqqtzrquV-5">
          <mxGeometry x="80" y="330" width="120" height="60" as="geometry" />
        </mxCell>
        <mxCell id="tRoF4hqVD8PDqqtzrquV-100" style="edgeStyle=orthogonalEdgeStyle;rounded=0;orthogonalLoop=1;jettySize=auto;html=1;exitX=0.5;exitY=1;exitDx=0;exitDy=0;exitPerimeter=0;entryX=0.5;entryY=0;entryDx=0;entryDy=0;" edge="1" parent="tRoF4hqVD8PDqqtzrquV-5" source="tRoF4hqVD8PDqqtzrquV-98" target="tRoF4hqVD8PDqqtzrquV-97">
          <mxGeometry relative="1" as="geometry" />
        </mxCell>
        <mxCell id="tRoF4hqVD8PDqqtzrquV-98" value="" style="points=[[0.145,0.145,0],[0.5,0,0],[0.855,0.145,0],[1,0.5,0],[0.855,0.855,0],[0.5,1,0],[0.145,0.855,0],[0,0.5,0]];shape=mxgraph.bpmn.event;html=1;verticalLabelPosition=bottom;labelBackgroundColor=#ffffff;verticalAlign=top;align=center;perimeter=ellipsePerimeter;outlineConnect=0;aspect=fixed;outline=throwing;symbol=message;fillColor=#fff2cc;strokeColor=#d6b656;" vertex="1" parent="tRoF4hqVD8PDqqtzrquV-5">
          <mxGeometry x="120" y="220" width="40" height="40" as="geometry" />
        </mxCell>
        <mxCell id="tRoF4hqVD8PDqqtzrquV-101" value="Выдача денежных средств" style="whiteSpace=wrap;html=1;rounded=1;" vertex="1" parent="tRoF4hqVD8PDqqtzrquV-5">
          <mxGeometry x="80" y="470" width="120" height="60" as="geometry" />
        </mxCell>
        <mxCell id="tRoF4hqVD8PDqqtzrquV-103" value="" style="points=[[0.145,0.145,0],[0.5,0,0],[0.855,0.145,0],[1,0.5,0],[0.855,0.855,0],[0.5,1,0],[0.145,0.855,0],[0,0.5,0]];shape=mxgraph.bpmn.event;html=1;verticalLabelPosition=bottom;labelBackgroundColor=#ffffff;verticalAlign=top;align=center;perimeter=ellipsePerimeter;outlineConnect=0;aspect=fixed;outline=standard;symbol=message;fillColor=#fff2cc;strokeColor=#d6b656;" vertex="1" parent="tRoF4hqVD8PDqqtzrquV-5">
          <mxGeometry x="120" y="580" width="40" height="40" as="geometry" />
        </mxCell>
        <mxCell id="tRoF4hqVD8PDqqtzrquV-104" style="edgeStyle=orthogonalEdgeStyle;rounded=0;orthogonalLoop=1;jettySize=auto;html=1;entryX=0.5;entryY=0;entryDx=0;entryDy=0;entryPerimeter=0;" edge="1" parent="tRoF4hqVD8PDqqtzrquV-5" source="tRoF4hqVD8PDqqtzrquV-101" target="tRoF4hqVD8PDqqtzrquV-103">
          <mxGeometry relative="1" as="geometry" />
        </mxCell>
        <mxCell id="tRoF4hqVD8PDqqtzrquV-14" style="edgeStyle=orthogonalEdgeStyle;rounded=0;orthogonalLoop=1;jettySize=auto;html=1;exitX=1;exitY=0.5;exitDx=0;exitDy=0;exitPerimeter=0;entryX=0;entryY=0.5;entryDx=0;entryDy=0;entryPerimeter=0;" edge="1" parent="1" source="tRoF4hqVD8PDqqtzrquV-11" target="tRoF4hqVD8PDqqtzrquV-13">
          <mxGeometry relative="1" as="geometry" />
        </mxCell>
        <mxCell id="tRoF4hqVD8PDqqtzrquV-25" style="edgeStyle=orthogonalEdgeStyle;rounded=0;orthogonalLoop=1;jettySize=auto;html=1;entryX=1;entryY=0.5;entryDx=0;entryDy=0;entryPerimeter=0;" edge="1" parent="1" source="tRoF4hqVD8PDqqtzrquV-22" target="tRoF4hqVD8PDqqtzrquV-24">
          <mxGeometry relative="1" as="geometry" />
        </mxCell>
        <mxCell id="tRoF4hqVD8PDqqtzrquV-32" style="edgeStyle=orthogonalEdgeStyle;rounded=0;orthogonalLoop=1;jettySize=auto;html=1;exitX=1;exitY=0.5;exitDx=0;exitDy=0;exitPerimeter=0;entryX=0;entryY=0.5;entryDx=0;entryDy=0;" edge="1" parent="1" source="tRoF4hqVD8PDqqtzrquV-16" target="tRoF4hqVD8PDqqtzrquV-31">
          <mxGeometry relative="1" as="geometry" />
        </mxCell>
        <mxCell id="tRoF4hqVD8PDqqtzrquV-33" value="ДА" style="edgeLabel;html=1;align=center;verticalAlign=middle;resizable=0;points=[];" vertex="1" connectable="0" parent="tRoF4hqVD8PDqqtzrquV-32">
          <mxGeometry x="-0.7941" y="4" relative="1" as="geometry">
            <mxPoint as="offset" />
          </mxGeometry>
        </mxCell>
        <mxCell id="tRoF4hqVD8PDqqtzrquV-47" style="edgeStyle=orthogonalEdgeStyle;rounded=0;orthogonalLoop=1;jettySize=auto;html=1;exitX=0.5;exitY=1;exitDx=0;exitDy=0;exitPerimeter=0;entryX=0.5;entryY=1;entryDx=0;entryDy=0;entryPerimeter=0;" edge="1" parent="1" source="tRoF4hqVD8PDqqtzrquV-43" target="tRoF4hqVD8PDqqtzrquV-24">
          <mxGeometry relative="1" as="geometry" />
        </mxCell>
        <mxCell id="tRoF4hqVD8PDqqtzrquV-68" style="edgeStyle=orthogonalEdgeStyle;rounded=0;orthogonalLoop=1;jettySize=auto;html=1;exitX=0.5;exitY=1;exitDx=0;exitDy=0;entryX=1;entryY=0.5;entryDx=0;entryDy=0;" edge="1" parent="1" source="tRoF4hqVD8PDqqtzrquV-55" target="tRoF4hqVD8PDqqtzrquV-63">
          <mxGeometry relative="1" as="geometry" />
        </mxCell>
        <mxCell id="tRoF4hqVD8PDqqtzrquV-72" style="edgeStyle=orthogonalEdgeStyle;rounded=0;orthogonalLoop=1;jettySize=auto;html=1;exitX=1;exitY=0.5;exitDx=0;exitDy=0;exitPerimeter=0;entryX=0;entryY=0.5;entryDx=0;entryDy=0;entryPerimeter=0;" edge="1" parent="1" source="tRoF4hqVD8PDqqtzrquV-69" target="tRoF4hqVD8PDqqtzrquV-71">
          <mxGeometry relative="1" as="geometry">
            <Array as="points">
              <mxPoint x="1010" y="710" />
              <mxPoint x="1010" y="250" />
            </Array>
          </mxGeometry>
        </mxCell>
        <mxCell id="tRoF4hqVD8PDqqtzrquV-90" style="edgeStyle=orthogonalEdgeStyle;rounded=0;orthogonalLoop=1;jettySize=auto;html=1;exitX=0.5;exitY=1;exitDx=0;exitDy=0;exitPerimeter=0;entryX=1;entryY=0.5;entryDx=0;entryDy=0;entryPerimeter=0;" edge="1" parent="1" source="tRoF4hqVD8PDqqtzrquV-85" target="tRoF4hqVD8PDqqtzrquV-89">
          <mxGeometry relative="1" as="geometry" />
        </mxCell>
        <mxCell id="tRoF4hqVD8PDqqtzrquV-92" style="edgeStyle=orthogonalEdgeStyle;rounded=0;orthogonalLoop=1;jettySize=auto;html=1;" edge="1" parent="1" source="tRoF4hqVD8PDqqtzrquV-85" target="tRoF4hqVD8PDqqtzrquV-24">
          <mxGeometry relative="1" as="geometry">
            <Array as="points">
              <mxPoint x="1100" y="760" />
              <mxPoint x="250" y="760" />
            </Array>
          </mxGeometry>
        </mxCell>
        <mxCell id="tRoF4hqVD8PDqqtzrquV-99" style="edgeStyle=orthogonalEdgeStyle;rounded=0;orthogonalLoop=1;jettySize=auto;html=1;exitX=1;exitY=0.5;exitDx=0;exitDy=0;exitPerimeter=0;entryX=0;entryY=0.5;entryDx=0;entryDy=0;entryPerimeter=0;" edge="1" parent="1" source="tRoF4hqVD8PDqqtzrquV-95" target="tRoF4hqVD8PDqqtzrquV-98">
          <mxGeometry relative="1" as="geometry" />
        </mxCell>
        <mxCell id="tRoF4hqVD8PDqqtzrquV-107" style="edgeStyle=orthogonalEdgeStyle;rounded=0;orthogonalLoop=1;jettySize=auto;html=1;exitX=0.5;exitY=1;exitDx=0;exitDy=0;exitPerimeter=0;entryX=1;entryY=0.5;entryDx=0;entryDy=0;entryPerimeter=0;" edge="1" parent="1" source="tRoF4hqVD8PDqqtzrquV-103" target="tRoF4hqVD8PDqqtzrquV-105">
          <mxGeometry relative="1" as="geometry" />
        </mxCell>
        <mxCell id="tRoF4hqVD8PDqqtzrquV-111" style="edgeStyle=orthogonalEdgeStyle;rounded=0;orthogonalLoop=1;jettySize=auto;html=1;exitX=0;exitY=0.5;exitDx=0;exitDy=0;entryX=0.5;entryY=1;entryDx=0;entryDy=0;" edge="1" parent="1" source="tRoF4hqVD8PDqqtzrquV-109" target="tRoF4hqVD8PDqqtzrquV-63">
          <mxGeometry relative="1" as="geometry" />
        </mxCell>
      </root>
    </mxGraphModel>
  </diagram>
</mxfile>
